<?xml version="1.0" encoding="UTF-8" standalone="no"?>
<svg
   xmlns:dc="http://purl.org/dc/elements/1.1/"
   xmlns:cc="http://creativecommons.org/ns#"
   xmlns:rdf="http://www.w3.org/1999/02/22-rdf-syntax-ns#"
   xmlns:svg="http://www.w3.org/2000/svg"
   xmlns="http://www.w3.org/2000/svg"
   xmlns:sodipodi="http://sodipodi.sourceforge.net/DTD/sodipodi-0.dtd"
   xmlns:inkscape="http://www.inkscape.org/namespaces/inkscape"
   version="1.1"
   viewBox="0 0 356.28 356.27"
   id="svg2"
   inkscape:version="0.91 r13725"
   sodipodi:docname="icon-TestsPassedOnRetry.svg"
   inkscape:export-filename="C:\Users\Erik M. Bray\Home\src\sagemath\sage-patchbot\sage_patchbot\images\icon-TestsPassedOnRetry.png"
   inkscape:export-xdpi="12.262443"
   inkscape:export-ydpi="12.262443">
  <metadata
     id="metadata19">
    <rdf:RDF>
      <cc:Work
         rdf:about="">
        <dc:format>image/svg+xml</dc:format>
        <dc:type
           rdf:resource="http://purl.org/dc/dcmitype/StillImage" />
        <dc:title></dc:title>
      </cc:Work>
    </rdf:RDF>
  </metadata>
  <sodipodi:namedview
     pagecolor="#ffffff"
     bordercolor="#666666"
     borderopacity="1"
     objecttolerance="10"
     gridtolerance="10"
     guidetolerance="10"
     inkscape:pageopacity="0"
     inkscape:pageshadow="2"
     inkscape:window-width="1334"
     inkscape:window-height="868"
     id="namedview17"
     showgrid="false"
     inkscape:zoom="0.66241897"
     inkscape:cx="235.83398"
     inkscape:cy="263.00091"
     inkscape:window-x="1493"
     inkscape:window-y="1214"
     inkscape:window-maximized="0"
     inkscape:current-layer="svg2" />
  <defs
     id="defs4">
    <linearGradient
       id="a"
       y2="-228.27"
       gradientUnits="userSpaceOnUse"
       x2="354.75"
       y1="-228.27"
       x1="30.859">
      <stop
         style="stop-color:#fff;stop-opacity:.090141"
         offset="0"
         id="stop7" />
      <stop
         style="stop-color:#fff;stop-opacity:.46197"
         offset="1"
         id="stop9" />
    </linearGradient>
    <linearGradient
       gradientTransform="matrix(0.34603587,0,0,0.34603587,237.2594,235.75203)"
       id="a-0"
       y2="-228.27"
       gradientUnits="userSpaceOnUse"
       x2="354.75"
       y1="-228.27"
       x1="30.858999">
      <stop
         stop-color="#fff"
         stop-opacity=".090141"
         offset="0"
         id="stop7-2" />
      <stop
         stop-color="#fff"
         stop-opacity=".46197"
         offset="1"
         id="stop9-8" />
    </linearGradient>
  </defs>
  <path
     style="stroke-linejoin:round;fill-opacity:.98599;stroke:#000;stroke-width:2.5;fill:#73d216"
     d="m154.059 349.485c-40.142-1.5847-82.136-14.278-109.74-44.902-28.601-30.753-37.717-74.147-37.882-114.98-0.97773-40.968 1.594-84.544 24.313-120.05 20.796-33.971 58.595-54.361 97.335-59.968 29.877-4.2978 60.35-4.0774 90.361-1.3439 39.418 3.9129 79.143 21.505 102.52 54.528 24.947 33.991 29.761 77.679 28.98 118.64 0.47971 40.949-6.22 84.619-32.868 117.27-25.247 31.944-65.98 47.335-105.65 50.162-19.07 1.518-38.264 1.3859-57.368 0.63932z"
     id="path11" />
  <path
     style="fill:url(#a)"
     d="m169.549 16.27c-41.314 0.23878-85.887 8.8774-115.5 39.688-26.362 27.196-36.78 65.845-37.231 102.91-1.9274 41.743-0.35141 86.561 22.562 122.84 15.805 25.369 41.807 43.508 70.661 50.754 37.631 10.404 77.493 8.826 115.91 4.6919 36.901-5.6687 73.513-24.402 92.421-57.732 22.606-37.531 22.811-82.86 21.11-125.36-1.7508-36.259-12.434-74.128-39.062-99.969-27.095-26.721-65.988-36.32-103.28-37.466-9.1917-0.44824-18.397-0.362-27.596-0.3469z"
     id="path13" />
  <path
     style="stroke-linejoin:round;stroke:#000;stroke-linecap:square;stroke-width:8;fill:none"
     d="m210.57 224.26-64.833 64.833-46.117-46.117-0.0507 0.0507-64.833-64.833 46.117-46.117 64.833 64.833 129.74-129.74 46.117 46.117-64.855 64.855z"
     id="path15" />
  <g
     id="g3363">
    <path
       id="path11-9"
       d="m 290.56934,356.68637 c -13.89057,-0.54836 -28.422,-4.9407 -37.97398,-15.5377 -9.89697,-10.64165 -13.05143,-25.65753 -13.10853,-39.78721 -0.33833,-14.1764 0.55158,-29.25526 8.41317,-41.5416 7.19617,-11.75519 20.27598,-18.81086 33.68141,-20.75108 10.33851,-1.48719 20.88326,-1.41093 31.26815,-0.46504 13.64004,1.35401 27.38631,7.4415 35.47559,18.86865 8.63256,11.7621 10.29838,26.87971 10.02812,41.05369 0.166,14.16982 -2.15234,29.28121 -11.37351,40.57962 -8.73636,11.05377 -22.83144,16.37961 -36.55868,17.35786 -6.59891,0.52528 -13.24072,0.47957 -19.85139,0.22122 z"
       style="fill:#edd400;fill-opacity:0.98430996;stroke:#000000;stroke-width:0.86508965;stroke-linejoin:round"
       inkscape:connector-curvature="0" />
    <path
       id="path13-0"
       d="m 295.92944,241.38203 c -14.29613,0.0826 -29.71999,3.0719 -39.96715,13.73347 -9.12219,9.41079 -12.7272,22.78473 -12.88326,35.61055 -0.66695,14.44457 -0.1216,29.95321 7.80726,42.50704 5.4691,8.77859 14.46672,15.05533 24.45125,17.56271 13.02167,3.60016 26.81535,3.05411 40.10901,1.62357 12.76907,-1.96158 25.43814,-8.44397 31.98099,-19.97735 7.82248,-12.98707 7.89342,-28.67253 7.30481,-43.37905 -0.60584,-12.54692 -4.30261,-25.65095 -13.51685,-34.59286 -9.37584,-9.24643 -22.83422,-12.56802 -35.73859,-12.96458 -3.18065,-0.15511 -6.36602,-0.12527 -9.5492,-0.12004 z"
       style="fill:url(#a-0);fill-opacity:1"
       inkscape:connector-curvature="0" />
    <path
       id="path15-2"
       d="m 306.19667,314.21565 -23.72284,0 0,-3.22 q 0,-5.38847 2.16858,-9.52879 2.16857,-4.20572 9.13431,-10.64579 l 4.20779,-3.80986 q 3.74584,-3.41717 5.45422,-6.44007 1.7743,-3.02286 1.7743,-6.04559 0,-4.59985 -3.15429,-7.16294 -3.15429,-2.62859 -8.80592,-2.62859 -5.32273,0 -11.50016,2.23428 -6.17709,2.16857 -12.88015,6.50582 l 0,-20.63446 q 7.95156,-2.76002 14.52278,-4.07423 6.57157,-1.31428 12.68291,-1.31428 16.03426,0 24.4457,6.57157 8.41144,6.50582 8.41144,19.05723 0,6.44007 -2.56288,11.5659 -2.56288,5.06008 -8.74017,10.90878 l -4.20572,3.74584 q -4.46871,4.07423 -5.8487,6.57157 -1.37999,2.43145 -1.37999,5.38847 l 0,2.95715 z m -23.72284,9.72569 23.72284,0 0,23.39445 -23.72284,0 0,-23.39445 z"
       style="fill:none;stroke:#000000;stroke-width:2.76828694;stroke-linejoin:round"
       inkscape:connector-curvature="0" />
  </g>
</svg>
