<?xml version="1.0" encoding="UTF-8" standalone="no"?>
<svg xmlns="http://www.w3.org/2000/svg" xmlns:xlink="http://www.w3.org/1999/xlink" viewBox="0 0 356.28 356.27" >
<defs>
<linearGradient id="a" y2="-228.27" gradientUnits="userSpaceOnUse" x2="354.75" y1="-228.27" x1="30.859">
<stop stop-color="#fff" stop-opacity=".090141" offset="0"/>
<stop stop-color="#fff" stop-opacity=".46197" offset="1"/>
</linearGradient>
</defs>
<path stroke-linejoin="round" d="m154.059 349.485c-40.142-1.5847-82.136-14.278-109.74-44.902-28.601-30.753-37.717-74.147-37.882-114.98-0.97773-40.968 1.594-84.544 24.313-120.05 20.796-33.971 58.595-54.361 97.335-59.968 29.877-4.2978 60.35-4.0774 90.361-1.3439 39.418 3.9129 79.143 21.505 102.52 54.528 24.947 33.991 29.761 77.679 28.98 118.64 0.47971 40.949-6.22 84.619-32.868 117.27-25.247 31.944-65.98 47.335-105.65 50.162-19.07 1.518-38.264 1.3859-57.368 0.63932z" fill-opacity=".98431" stroke="#000" stroke-width="2.5" fill="#ffa500"/>
<path fill-opacity="1" fill="url(#a)" d="m169.549 16.27c-41.314 0.23878-85.887 8.8774-115.5 39.688-26.362 27.196-36.78 65.845-37.231 102.91-1.9274 41.743-0.35141 86.561 22.562 122.84 15.805 25.369 41.807 43.508 70.661 50.754 37.631 10.404 77.493 8.826 115.91 4.6919 36.901-5.6687 73.513-24.402 92.421-57.732 22.606-37.531 22.811-82.86 21.11-125.36-1.7508-36.259-12.434-74.128-39.062-99.969-27.095-26.721-65.988-36.32-103.28-37.466-9.1917-0.44824-18.397-0.362-27.596-0.3469z"/>
<path  style="stroke-linejoin:round;stroke:#000;stroke-linecap:square;stroke-width:8;fill:none" d="m161.62 34.471q8.166-0.94954 16.522-0.94954 8.3559 0 16.522 0.94954l4.9376 35.513q12.724 2.4688 24.878 8.166l23.928-25.068q14.433 8.5458 26.587 20.7l-15.952 29.626q8.9256 9.4954 15.193 20.89l31.335-5.8871q7.0266 15.952 10.065 33.424l-28.106 13.104q0.75963 6.6468 0.75963 13.104 0 6.4568-0.75963 13.104l28.106 13.293q-3.0385 17.282-10.065 33.234l-31.335-5.8871q-6.2669 11.394-15.193 21.08l15.952 29.436q-12.154 12.154-26.587 20.89l-23.928-25.068q-12.154 5.5073-24.878 8.166l-4.9376 35.323q-8.166 1.1394-16.522 1.1394-8.3559 0-16.522-1.1394l-4.9376-35.323q-12.724-2.6587-24.878-8.166l-23.928 25.068q-14.429-8.73-26.583-20.88l15.952-29.44q-8.925-9.49-15.192-21.08l-31.335 5.8871q-7.027-15.95-10.065-33.23l28.106-13.3q-0.75963-6.6468-0.75963-13.104 0-6.4568 0.75963-13.104l-28.106-13.1q3.0385-17.471 10.065-33.424l31.335 5.8871q6.2669-11.394 15.193-21.08l-15.953-29.438q12.154-12.154 26.583-20.7l23.928 24.878q12.154-5.5073 24.878-7.9761l4.9376-35.513zm75.583 84.699q-24.498-24.688-59.061-24.688t-59.061 24.688q-24.498 24.498-24.498 59.061 0 34.373 24.498 58.871t59.061 24.498 59.061-24.498 24.498-58.871q0-34.563-24.498-59.061zm-38.361 38.171q8.7357 8.5458 8.7357 20.7t-8.7357 20.89q-8.5458 8.5458-20.7 8.5458t-20.89-8.5458q-8.5458-8.7357-8.5458-20.89t8.5458-20.7q8.7357-8.7357 20.89-8.7357t20.7 8.7357z"/>
</svg>
