<?xml version="1.0" encoding="UTF-8" standalone="no"?>
<svg xmlns="http://www.w3.org/2000/svg" xmlns:xlink="http://www.w3.org/1999/xlink" viewBox="0 0 356.28 356.27">
<defs>
<linearGradient id="a" y2="-228.27" gradientUnits="userSpaceOnUse" x2="354.75" y1="-228.27" x1="30.859">
<stop stop-color="#fff" stop-opacity=".090141" offset="0"/>
<stop stop-color="#fff" stop-opacity=".46197" offset="1"/>
</linearGradient>
</defs>
<path stroke-linejoin="round" d="m154.059 349.485c-40.142-1.5847-82.136-14.278-109.74-44.902-28.601-30.753-37.717-74.147-37.882-114.98-0.97773-40.968 1.594-84.544 24.313-120.05 20.796-33.971 58.595-54.361 97.335-59.968 29.877-4.2978 60.35-4.0774 90.361-1.3439 39.418 3.9129 79.143 21.505 102.52 54.528 24.947 33.991 29.761 77.679 28.98 118.64 0.47971 40.949-6.22 84.619-32.868 117.27-25.247 31.944-65.98 47.335-105.65 50.162-19.07 1.518-38.264 1.3859-57.368 0.63932z" fill-opacity=".98431" stroke="#000" stroke-width="2.5" fill="#ff4ad2"/>
<path fill-opacity="1" fill="url(#a)" d="m169.549 16.27c-41.314 0.23878-85.887 8.8774-115.5 39.688-26.362 27.196-36.78 65.845-37.231 102.91-1.9274 41.743-0.35141 86.561 22.562 122.84 15.805 25.369 41.807 43.508 70.661 50.754 37.631 10.404 77.493 8.826 115.91 4.6919 36.901-5.6687 73.513-24.402 92.421-57.732 22.606-37.531 22.811-82.86 21.11-125.36-1.7508-36.259-12.434-74.128-39.062-99.969-27.095-26.721-65.988-36.32-103.28-37.466-9.1917-0.44824-18.397-0.362-27.596-0.3469z"/>
<path d="m156.79 61.424c-64.45 23.46-97.678 94.716-74.219 159.18 23.46 64.455 94.718 97.683 159.17 74.223 14.951-5.4417 28.215-13.447 39.488-23.352-49.673-1.1315-95.895-32.215-113.91-81.718-18.017-49.502-2.5776-103 34.746-135.79-15.003-0.34143-30.319 2.023-45.271 7.4649z" stroke="#000" stroke-width="8" fill="none"/>
</svg>
