<?xml version="1.0" encoding="UTF-8" standalone="no"?>
<svg xmlns="http://www.w3.org/2000/svg" xmlns:xlink="http://www.w3.org/1999/xlink" viewBox="0 0 356.28 356.27">
<defs>
<linearGradient id="a" y2="-228.27" gradientUnits="userSpaceOnUse" x2="354.75" y1="-228.27" x1="30.859">
<stop stop-color="#fff" stop-opacity=".090141" offset="0"/>
<stop stop-color="#fff" stop-opacity=".46197" offset="1"/>
</linearGradient>
</defs>
<path stroke-linejoin="round" d="m154.059 349.485c-40.142-1.5847-82.136-14.278-109.74-44.902-28.601-30.753-37.717-74.147-37.882-114.98-0.97773-40.968 1.594-84.544 24.313-120.05 20.796-33.971 58.595-54.361 97.335-59.968 29.877-4.2978 60.35-4.0774 90.361-1.3439 39.418 3.9129 79.143 21.505 102.52 54.528 24.947 33.991 29.761 77.679 28.98 118.64 0.47971 40.949-6.22 84.619-32.868 117.27-25.247 31.944-65.98 47.335-105.65 50.162-19.07 1.518-38.264 1.3859-57.368 0.63932z" fill-opacity=".98431" stroke="#000" stroke-width="2.5" fill="#edd400"/>
<path fill-opacity="1" fill="url(#a)" d="m169.549 16.27c-41.314 0.23878-85.887 8.8774-115.5 39.688-26.362 27.196-36.78 65.845-37.231 102.91-1.9274 41.743-0.35141 86.561 22.562 122.84 15.805 25.369 41.807 43.508 70.661 50.754 37.631 10.404 77.493 8.826 115.91 4.6919 36.901-5.6687 73.513-24.402 92.421-57.732 22.606-37.531 22.811-82.86 21.11-125.36-1.7508-36.259-12.434-74.128-39.062-99.969-27.095-26.721-65.988-36.32-103.28-37.466-9.1917-0.44824-18.397-0.362-27.596-0.3469z"/>
<path style="stroke-linejoin:round;stroke:#000;stroke-width:8;fill:none" d="m199.22 226.75h-68.556v-9.3054q0-15.572 6.2669-27.537 6.2669-12.154 26.397-30.765l12.16-11.01q10.825-9.8752 15.762-18.611 5.1275-8.7357 5.1275-17.471 0-13.293-9.1155-20.7-9.1155-7.5963-25.448-7.5963-15.382 0-33.234 6.4568-17.851 6.2669-37.222 18.801v-59.631q22.979-7.9761 41.969-11.774 18.991-3.7981 36.652-3.7981 46.337 0 70.645 18.991 24.308 18.801 24.308 55.073 0 18.611-7.4064 33.424-7.4064 14.623-25.258 31.525l-12.154 10.825q-12.914 11.774-16.902 18.991-3.988 7.0266-3.988 15.572v8.5458zm-68.556 28.106h68.556v67.607h-68.556v-67.607z"/>
</svg>
