<?xml version="1.0" encoding="UTF-8" standalone="no"?>
<svg xmlns="http://www.w3.org/2000/svg" height="356" width="356" xmlns:xlink="http://www.w3.org/1999/xlink" viewBox="0 0 284.8 284.8" >
<defs>
<linearGradient id="b" y2="277.56" gradientUnits="userSpaceOnUse" x2="268.96" y1="277.56" x1="15.82">
<stop stop-color="#fff" stop-opacity=".090141" offset="0"/>
<stop stop-color="#fff" stop-opacity=".46197" offset="1"/>
</linearGradient>
</defs>
<g transform="matrix(1.0463 0 0 1.0463 -6.5887 -148.04)">
<path stroke-linejoin="round" d="m405.48 210.24c-0.31-26.86-24.45-45.75-47.64-54.36-21.1-8.93-44.49-8.91-66.18-15.43-15.43-6.19-14.43-25.35-17.35-39.01-4.56-30.178-14.53-63.995-42.39-80.583-18.94-11.6-44.14-4.705-57.96 11.66-22.349 24.296-25.986 58.428-31.381 89.51-1.4254 11.507-11.172 19.813-22.455 20.959-30.876 5.1104-64.75 9.2373-88.48 31.827-16.158 14.07-22.2 39.43-10.25 58.05 17.109 27.456 50.839 37.084 81.006 41.604 13.318 2.7783 31.894 2.0057 37.948 16.982 6.7645 21.544 6.4728 44.923 15.375 65.958 8.5429 23.167 27.188 47.435 54.015 48.026 26.87 0.0927 45.981-23.964 54.677-47.1 8.9366-20.98 9.1583-44.199 15.3-65.88 5.4516-15.659 24.496-15.223 37.984-18.02 30.146-4.3354 63.767-13.889 81.095-41.092 4.2056-6.9381 6.678-14.97 6.6869-23.109z" fill-opacity=".98431" transform="matrix(.67605 0 0 .67605 .23101 135.45)" stroke="#000" stroke-width="2.887" fill="#f00"/>
<path fill="url(#b)" d="m141.78 151.03c-17.329 0.87648-28.189 18.009-32.75 33.156-5.1778 14.158-4.1431 30.161-10.625 43.844-9.1219 12.32-26.178 9.652-39.25 13.469-16.704 3.8094-35.856 11.295-42.219 28.719-3.714 11.567 2.2194 23.964 12.062 30.594 16.967 13.362 39.483 13.584 59.656 18.594 9.671 3.587 13.348 13.945 14.375 23.344 3.5151 20.164 6.6353 43.416 24.406 56.281 9.4209 7.3314 22.979 6.6018 31.688-1.4375 16.999-14.214 19.982-38.007 23.156-58.781 1.3489-8.7236 6.3862-17.444 15.469-19.75 13.804-4.2836 28.682-3.667 41.997-9.5115 14.183-5.1634 29.807-16.827 29.19-33.457-1.6433-16.544-17.971-27.119-32.531-31.812-14.487-4.944-30.677-4.1986-44.531-10.875-11.866-8.337-9.6493-24.709-12.938-37.094-3.545-17.705-11.981-38.423-30.531-44.625-2.179-0.57766-4.3762-0.75296-6.625-0.65625z"/>
</g>
<path d="m98.519 95.224 47.184 47.184-47.168 47.168 33.551 33.551 47.168-47.168 47.168 47.168l33.55-33.55-47.16-47.17 47.16-47.17-33.55-33.551-47.17 47.171-47.18-47.187-33.551 33.551z" stroke="#000" stroke-width="6" fill="none"/>
</svg>
