<?xml version="1.0" encoding="UTF-8" standalone="no"?>
<svg xmlns:rdf="http://www.w3.org/1999/02/22-rdf-syntax-ns#" xmlns="http://www.w3.org/2000/svg" version="1.1" xmlns:cc="http://creativecommons.org/ns#" viewBox="0 0 356.28 356.27" xmlns:dc="http://purl.org/dc/elements/1.1/">
 <defs id="defs4">
  <linearGradient id="a" y2="-228.27" gradientUnits="userSpaceOnUse" y1="-228.27" x2="354.75" x1="30.859">
   <stop id="stop7" stop-color="#fff" stop-opacity=".090141" offset="0"/>
   <stop id="stop9" stop-color="#fff" stop-opacity=".46197" offset="1"/>
  </linearGradient>
 </defs>
 <path id="path11" stroke-linejoin="round" d="m154.06 349.48c-40.142-1.5847-82.136-14.278-109.74-44.902-28.601-30.753-37.717-74.147-37.882-114.98-0.97773-40.968 1.594-84.544 24.313-120.05 20.796-33.971 58.595-54.361 97.335-59.968 29.877-4.2978 60.35-4.0774 90.361-1.3439 39.418 3.9129 79.143 21.505 102.52 54.528 24.947 33.991 29.761 77.679 28.98 118.64 0.47971 40.949-6.22 84.619-32.868 117.27-25.247 31.944-65.98 47.335-105.65 50.162-19.07 1.518-38.264 1.3859-57.368 0.63932z" fill-opacity=".98431" stroke="#000" stroke-width="2.5" fill="#ff4ad2"/>
 <path id="path13" fill="url(#a)" d="m169.55 16.27c-41.314 0.23878-85.887 8.8774-115.5 39.688-26.362 27.196-36.78 65.845-37.231 102.91-1.9274 41.743-0.35141 86.561 22.562 122.84 15.805 25.369 41.807 43.508 70.661 50.754 37.631 10.404 77.493 8.826 115.91 4.6919 36.901-5.6687 73.513-24.402 92.421-57.732 22.606-37.531 22.811-82.86 21.11-125.36-1.7508-36.259-12.434-74.128-39.062-99.969-27.095-26.721-65.988-36.32-103.28-37.466-9.1917-0.44824-18.397-0.362-27.596-0.3469z"/>
 <path stroke-linejoin="round" d="m297.23 270.54-152.16 23.133-85.216-39.79 152.16-23.117 85.217 39.789z" stroke="#000" stroke-width="8" fill="none"/>
 <path stroke-linejoin="round" d="m297.23 270.54-85.21-39.775-0.76904-168.22 85.225 39.784 0.75366 168.2z" stroke="#000" stroke-width="8" fill="none"/>
 <path stroke-linejoin="round" d="m212.02 230.76-152.16 23.12-0.767-168.22 152.16-23.122 0.77 168.22z" stroke="#000" stroke-width="8" fill="none"/>
 <path d="m144.31 125.45 152.17-23.128" stroke="#000" stroke-linecap="round" stroke-width="8" fill="none"/>
 <path d="m144.31 125.45 0.76364 168.22" stroke="#000" stroke-linecap="round" stroke-width="8" fill="none"/>
 <path d="m59.093 85.666 85.217 39.789" stroke="#000" stroke-linecap="round" stroke-width="8" fill="none"/>
</svg>
