<?xml version="1.0" encoding="UTF-8" standalone="no"?>
<svg xmlns="http://www.w3.org/2000/svg" xmlns:xlink="http://www.w3.org/1999/xlink" viewBox="0 0 356.28 356.27">
<defs>
<linearGradient id="b" y2="277.56" gradientUnits="userSpaceOnUse" x2="268.96" y1="277.56" x1="15.82">
<stop stop-color="#fff" stop-opacity=".090141" offset="0"/>
<stop stop-color="#fff" stop-opacity=".46197" offset="1"/>
</linearGradient>
<linearGradient id="c" y2="-228.27" gradientUnits="userSpaceOnUse" x2="354.75" y1="-228.27" x1="30.859">
<stop stop-color="#fff" stop-opacity=".090141" offset="0"/>
<stop stop-color="#fff" stop-opacity=".46197" offset="1"/>
</linearGradient>
</defs>
<g transform="matrix(.66 0 0 .66 1.6908 1.6909)">
<path stroke-linejoin="round" d="m154.059 349.485c-40.142-1.5847-82.136-14.278-109.74-44.902-28.601-30.753-37.717-74.147-37.882-114.98-0.97773-40.968 1.594-84.544 24.313-120.05 20.796-33.971 58.595-54.361 97.335-59.968 29.877-4.2978 60.35-4.0774 90.361-1.3439 39.418 3.9129 79.143 21.505 102.52 54.528 24.947 33.991 29.761 77.679 28.98 118.64 0.47971 40.949-6.22 84.619-32.868 117.27-25.247 31.944-65.98 47.335-105.65 50.162-19.07 1.518-38.264 1.3859-57.368 0.63932z" fill-opacity=".98599" stroke="#000" stroke-width="2.5" fill="#73d216"/>
<path fill-opacity="1" fill="url(#c)" d="m169.549 16.27c-41.314 0.23878-85.887 8.8774-115.5 39.688-26.362 27.196-36.78 65.845-37.231 102.91-1.9274 41.743-0.35141 86.561 22.562 122.84 15.805 25.369 41.807 43.508 70.661 50.754 37.631 10.404 77.493 8.826 115.91 4.6919 36.901-5.6687 73.513-24.402 92.421-57.732 22.606-37.531 22.811-82.86 21.11-125.36-1.7508-36.259-12.434-74.128-39.062-99.969-27.095-26.721-65.988-36.32-103.28-37.466-9.1917-0.44824-18.397-0.362-27.596-0.3469z"/>
<path stroke-linejoin="round" d="m210.57 224.26-64.833 64.833-46.117-46.117-0.0507 0.0507-64.833-64.833 46.117-46.117 64.833 64.833 129.74-129.74 46.117 46.117-64.855 64.855z" stroke="#000" stroke-linecap="square" stroke-width="9.0909" fill="none"/>
</g>
<g transform="matrix(.825 0 0 .825 119.06 119.05)">
<g transform="matrix(1.0463 0 0 1.0463 -6.5887 -148.04)">
<path stroke-linejoin="round" d="m405.48 210.24c-0.31-26.86-24.45-45.75-47.64-54.36-21.1-8.93-44.49-8.91-66.18-15.43-15.43-6.19-14.43-25.35-17.35-39.01-4.56-30.178-14.53-63.995-42.39-80.583-18.94-11.6-44.14-4.705-57.96 11.66-22.349 24.296-25.986 58.428-31.381 89.51-1.4254 11.507-11.172 19.813-22.455 20.959-30.876 5.1104-64.75 9.2373-88.48 31.827-16.158 14.07-22.2 39.43-10.25 58.05 17.109 27.456 50.839 37.084 81.006 41.604 13.318 2.7783 31.894 2.0057 37.948 16.982 6.7645 21.544 6.4728 44.923 15.375 65.958 8.5429 23.167 27.188 47.435 54.015 48.026 26.87 0.0927 45.981-23.964 54.677-47.1 8.9366-20.98 9.1583-44.199 15.3-65.88 5.4516-15.659 24.496-15.223 37.984-18.02 30.146-4.3354 63.767-13.889 81.095-41.092 4.2056-6.9381 6.678-14.97 6.6869-23.109z" fill-opacity=".98431" transform="matrix(.67605 0 0 .67605 .23101 135.45)" stroke="#000" stroke-linecap="square" stroke-width="2.887" fill="#f00"/>
<path fill="url(#b)" d="m141.78 151.03c-17.329 0.87648-28.189 18.009-32.75 33.156-5.1778 14.158-4.1431 30.161-10.625 43.844-9.1219 12.32-26.178 9.652-39.25 13.469-16.704 3.8094-35.856 11.295-42.219 28.719-3.714 11.567 2.2194 23.964 12.062 30.594 16.967 13.362 39.483 13.584 59.656 18.594 9.671 3.587 13.348 13.945 14.375 23.344 3.5151 20.164 6.6353 43.416 24.406 56.281 9.4209 7.3314 22.979 6.6018 31.688-1.4375 16.999-14.214 19.982-38.007 23.156-58.781 1.3489-8.7236 6.3862-17.444 15.469-19.75 13.804-4.2836 28.682-3.667 41.997-9.5115 14.183-5.1634 29.807-16.827 29.19-33.457-1.6433-16.544-17.971-27.119-32.531-31.812-14.487-4.944-30.677-4.1986-44.531-10.875-11.866-8.337-9.6493-24.709-12.938-37.094-3.545-17.705-11.981-38.423-30.531-44.625-2.179-0.57766-4.3762-0.75296-6.625-0.65625z"/>
</g>
<path d="m98.519 95.224 47.184 47.184-47.168 47.168 33.551 33.551 47.168-47.168 47.168 47.168l33.55-33.55-47.16-47.17 47.16-47.17-33.55-33.551-47.17 47.171-47.18-47.187-33.551 33.551z" stroke="#000" stroke-linecap="square" stroke-width="7.2727" fill="none"/>
</g>
</svg>
