<?xml version="1.0" encoding="UTF-8"?>
<svg version="1.1" viewBox="0 0 356.28 356.27" xmlns="http://www.w3.org/2000/svg" xmlns:cc="http://creativecommons.org/ns#" xmlns:dc="http://purl.org/dc/elements/1.1/" xmlns:rdf="http://www.w3.org/1999/02/22-rdf-syntax-ns#">
 <metadata>
  <rdf:RDF>
   <cc:Work rdf:about="">
    <dc:format>image/svg+xml</dc:format>
    <dc:type rdf:resource="http://purl.org/dc/dcmitype/StillImage"/>
    <dc:title/>
   </cc:Work>
  </rdf:RDF>
 </metadata>
 <defs>
  <linearGradient id="a" x1="30.859" x2="354.75" y1="-228.27" y2="-228.27" gradientUnits="userSpaceOnUse">
   <stop stop-color="#fff" stop-opacity=".090141" offset="0"/>
   <stop stop-color="#fff" stop-opacity=".46197" offset="1"/>
  </linearGradient>
 </defs>
 <path d="m154.06 349.48c-40.142-1.5847-82.136-14.278-109.74-44.902-28.601-30.753-37.717-74.147-37.882-114.98-0.97773-40.968 1.594-84.544 24.313-120.05 20.796-33.971 58.595-54.361 97.335-59.968 29.877-4.2978 60.35-4.0774 90.361-1.3439 39.418 3.9129 79.143 21.505 102.52 54.528 24.947 33.991 29.761 77.679 28.98 118.64 0.47971 40.949-6.22 84.619-32.868 117.27-25.247 31.944-65.98 47.335-105.65 50.162-19.07 1.518-38.264 1.3859-57.368 0.63932z" fill="#73d216" fill-opacity=".98599" stroke="#000" stroke-linejoin="round" stroke-width="2.5"/>
 <path d="m169.55 16.27c-41.314 0.23878-85.887 8.8774-115.5 39.688-26.362 27.196-36.78 65.845-37.231 102.91-1.9274 41.743-0.35141 86.561 22.562 122.84 15.805 25.369 41.807 43.508 70.661 50.754 37.631 10.404 77.493 8.826 115.91 4.6919 36.901-5.6687 73.513-24.402 92.421-57.732 22.606-37.531 22.811-82.86 21.11-125.36-1.7508-36.259-12.434-74.128-39.062-99.969-27.095-26.721-65.988-36.32-103.28-37.466-9.1917-0.44824-18.397-0.362-27.596-0.3469z" fill="url(#a)"/>
 <path d="m154.06 349.48c-40.142-1.5847-82.136-14.278-109.74-44.902l276.65-241.81c24.947 33.991 29.761 77.679 28.98 118.64 0.47971 40.949-6.22 84.619-32.868 117.27-25.247 31.944-65.98 47.335-105.65 50.162-19.07 1.518-38.264 1.3859-57.368 0.63932z" fill="#eed400" fill-opacity=".98431"/>
 <path d="m210.57 224.26-64.833 64.833-46.117-46.117-0.0507 0.0507-64.833-64.833 46.117-46.117 64.833 64.833 129.74-129.74 46.117 46.117-64.855 64.855z" fill="none" stroke="#000" stroke-linecap="square" stroke-linejoin="round" stroke-width="8"/>
 <path d="m280.2 269.65h-22.623v-3.0708q0-5.1388 2.0681-9.0872 2.0681-4.0108 8.711-10.152l4.0128-3.6333q3.5722-3.2588 5.2015-6.1416 1.6921-2.8828 1.6921-5.7654 0-4.3867-3.0081-6.831-3.0081-2.5068-8.3978-2.5068-5.0761 0-10.967 2.1307-5.8908 2.0681-12.283 6.2043v-19.678q7.5831-2.6321 13.85-3.8854 6.267-1.2534 12.095-1.2534 15.291 0 23.313 6.267 8.0216 6.2043 8.0216 18.174 0 6.1416-2.4441 11.03-2.4441 4.8256-8.3351 10.403l-4.0108 3.5722q-4.2616 3.8854-5.5777 6.267-1.316 2.3188-1.316 5.1388v2.8201zm-22.623 9.275h22.623v22.31h-22.623z" fill="none" stroke="#000" stroke-linejoin="round" stroke-width="7"/>
</svg>
